<?xml version="1.0" encoding="iso-8859-1"?>
<!-- Uploaded to: SVG Repo, www.svgrepo.com, Generator: SVG Repo Mixer Tools -->
<svg version="1.1" id="Layer_1" xmlns="http://www.w3.org/2000/svg" xmlns:xlink="http://www.w3.org/1999/xlink" 
	 viewBox="0 0 392.727 392.727" xml:space="preserve">
<rect x="60.703" y="21.915" style="fill:#FFFFFF;" width="151.661" height="104.145"/>
<rect x="82.618" y="43.701" style="fill:#FFC10D;" width="108.024" height="60.509"/>
<path style="fill:#194F82;" d="M359.822,172.541H187.281l-7.822-24.63h43.83c6.012,0,10.925-4.848,10.925-10.925V10.99
	c0-6.012-4.848-10.925-10.925-10.925H49.842c-6.012,0-10.925,4.848-10.925,10.925v125.931c0,6.012,4.848,10.925,10.925,10.925h43.83
	l-7.822,24.63H32.711C14.675,172.477,0,187.152,0,205.188v176.549c0,6.012,4.848,10.925,10.925,10.925s10.925-4.849,10.925-10.925
	V237.964h215.596v143.774c0,6.012,4.848,10.925,10.925,10.925s10.925-4.848,10.925-10.925v-12.541h111.58v12.541
	c0,6.012,4.849,10.925,10.925,10.925c6.012,0,10.925-4.848,10.925-10.925V205.188C392.533,187.216,377.859,172.541,359.822,172.541z
	 M60.703,126.061V21.915h151.725v104.145H60.703z M162.78,167.434h-52.493l6.206-19.523h40.081L162.78,167.434z M370.747,347.475
	h-111.58V237.964h111.515v109.511L370.747,347.475L370.747,347.475z M370.747,216.113H21.786v-10.925
	c0-6.012,4.848-10.925,10.925-10.925h327.111c6.012,0,10.925,4.848,10.925,10.925V216.113L370.747,216.113z"/>
<g>
	<path style="fill:#56ACE0;" d="M370.747,205.188c0-6.012-4.848-10.925-10.925-10.925H32.711c-6.012,0-10.925,4.848-10.925,10.925
		v10.925h348.962L370.747,205.188L370.747,205.188z"/>
	<rect x="259.168" y="237.964" style="fill:#56ACE0;" width="111.515" height="109.511"/>
</g>
<polygon style="fill:#FFC10D;" points="156.638,147.846 116.493,147.846 110.352,167.434 162.78,167.434 "/>
<path style="fill:#194F82;" d="M291.943,267.507c-6.012,0-10.925,4.848-10.925,10.925v28.638c0,6.012,4.848,10.925,10.925,10.925
	c6.012,0,10.925-4.848,10.925-10.925v-28.638C302.804,272.356,297.956,267.507,291.943,267.507z"/>
</svg>