<svg width="256" height="256" viewBox="0 0 256 256" fill="none" xmlns="http://www.w3.org/2000/svg">
<g clip-path="url(#clip0_517_2)">
<mask id="path-1-outside-1_517_2" maskUnits="userSpaceOnUse" x="2" y="30" width="263" height="163" fill="black">
<rect fill="white" x="2" y="30" width="263" height="163"/>
<path d="M76.0476 183H12.2076V40.5H76.0476C88.841 40.5 99.5443 41.83 108.158 44.49C116.771 47.0233 123.674 51.14 128.868 56.84C134.061 62.54 137.734 69.8867 139.888 78.88C142.168 87.8733 143.308 98.7667 143.308 111.56C143.308 124.353 142.168 135.31 139.888 144.43C137.734 153.423 134.061 160.77 128.868 166.47C123.674 172.17 116.771 176.35 108.158 179.01C99.5443 181.67 88.841 183 76.0476 183ZM76.8076 76.98H57.8076V146.52H76.8076C83.141 146.52 87.6376 145.823 90.2976 144.43C93.0843 142.91 94.4776 139.553 94.4776 134.36V89.14C94.4776 83.9467 93.0843 80.6533 90.2976 79.26C87.6376 77.74 83.141 76.98 76.8076 76.98Z"/>
<path d="M243.706 96.17V130.18H204.946V183H159.346V40.5H252.826L247.126 76.98H204.946V96.17H243.706Z"/>
</mask>
<path d="M76.0476 183H12.2076V40.5H76.0476C88.841 40.5 99.5443 41.83 108.158 44.49C116.771 47.0233 123.674 51.14 128.868 56.84C134.061 62.54 137.734 69.8867 139.888 78.88C142.168 87.8733 143.308 98.7667 143.308 111.56C143.308 124.353 142.168 135.31 139.888 144.43C137.734 153.423 134.061 160.77 128.868 166.47C123.674 172.17 116.771 176.35 108.158 179.01C99.5443 181.67 88.841 183 76.0476 183ZM76.8076 76.98H57.8076V146.52H76.8076C83.141 146.52 87.6376 145.823 90.2976 144.43C93.0843 142.91 94.4776 139.553 94.4776 134.36V89.14C94.4776 83.9467 93.0843 80.6533 90.2976 79.26C87.6376 77.74 83.141 76.98 76.8076 76.98Z" fill="#BDBDBD"/>
<path d="M243.706 96.17V130.18H204.946V183H159.346V40.5H252.826L247.126 76.98H204.946V96.17H243.706Z" fill="#BDBDBD"/>
<path d="M12.2076 183H2.20762V193H12.2076V183ZM12.2076 40.5V30.5H2.20762V40.5H12.2076ZM108.158 44.49L105.207 54.0447L105.271 54.0646L105.336 54.0836L108.158 44.49ZM139.888 78.88L130.163 81.2085L130.178 81.2731L130.194 81.3375L139.888 78.88ZM139.888 144.43L130.186 142.005L130.174 142.053L130.163 142.101L139.888 144.43ZM128.868 166.47L121.476 159.735L121.476 159.735L128.868 166.47ZM108.158 179.01L105.207 169.455L105.207 169.455L108.158 179.01ZM57.8076 76.98V66.98H47.8076V76.98H57.8076ZM57.8076 146.52H47.8076V156.52H57.8076V146.52ZM90.2976 144.43L94.9377 153.288L95.0122 153.249L95.0861 153.209L90.2976 144.43ZM90.2976 79.26L85.3362 87.9424L85.5772 88.0801L85.8255 88.2043L90.2976 79.26ZM76.0476 183V173H12.2076V183V193H76.0476V183ZM12.2076 183H22.2076V40.5H12.2076H2.20762V183H12.2076ZM12.2076 40.5V50.5H76.0476V40.5V30.5H12.2076V40.5ZM76.0476 40.5V50.5C88.2236 50.5 97.8569 51.7749 105.207 54.0447L108.158 44.49L111.108 34.9352C101.232 31.8851 89.4583 30.5 76.0476 30.5V40.5ZM108.158 44.49L105.336 54.0836C112.486 56.1865 117.706 59.4374 121.476 63.5749L128.868 56.84L136.26 50.1051C129.643 42.8426 121.056 37.8601 110.979 34.8963L108.158 44.49ZM128.868 56.84L121.476 63.5749C125.325 67.8001 128.324 73.5311 130.163 81.2085L139.888 78.88L149.613 76.5514C147.144 66.2422 142.797 57.2799 136.26 50.1051L128.868 56.84ZM139.888 78.88L130.194 81.3375C132.21 89.2893 133.308 99.3071 133.308 111.56H143.308H153.308C153.308 98.2262 152.125 86.4574 149.581 76.4225L139.888 78.88ZM143.308 111.56H133.308C133.308 123.808 132.211 133.904 130.186 142.005L139.888 144.43L149.589 146.855C152.124 136.716 153.308 124.899 153.308 111.56H143.308ZM139.888 144.43L130.163 142.101C128.324 149.779 125.325 155.51 121.476 159.735L128.868 166.47L136.26 173.205C142.797 166.03 147.144 157.068 149.613 146.759L139.888 144.43ZM128.868 166.47L121.476 159.735C117.675 163.907 112.406 167.232 105.207 169.455L108.158 179.01L111.108 188.565C121.136 185.468 129.674 180.433 136.26 173.205L128.868 166.47ZM108.158 179.01L105.207 169.455C97.8569 171.725 88.2236 173 76.0476 173V183V193C89.4583 193 101.232 191.615 111.108 188.565L108.158 179.01ZM76.8076 76.98V66.98H57.8076V76.98V86.98H76.8076V76.98ZM57.8076 76.98H47.8076V146.52H57.8076H67.8076V76.98H57.8076ZM57.8076 146.52V156.52H76.8076V146.52V136.52H57.8076V146.52ZM76.8076 146.52V156.52C83.3428 156.52 89.9718 155.89 94.9377 153.288L90.2976 144.43L85.6575 135.572C85.6657 135.567 85.0621 135.858 83.3991 136.115C81.8104 136.362 79.6442 136.52 76.8076 136.52V146.52ZM90.2976 144.43L95.0861 153.209C102.784 149.01 104.478 140.75 104.478 134.36H94.4776H84.4776C84.4776 135.222 84.419 135.858 84.3466 136.302C84.3109 136.521 84.2742 136.68 84.2449 136.786C84.2158 136.893 84.1962 136.94 84.1967 136.939C84.1996 136.932 84.2876 136.725 84.5338 136.438C84.7911 136.138 85.1284 135.859 85.5091 135.651L90.2976 144.43ZM94.4776 134.36H104.478V89.14H94.4776H84.4776V134.36H94.4776ZM94.4776 89.14H104.478C104.478 82.8505 102.819 74.3405 94.7697 70.3157L90.2976 79.26L85.8255 88.2043C85.3803 87.9817 84.9772 87.6692 84.6634 87.3174C84.3629 86.9804 84.2433 86.7194 84.223 86.6714C84.2077 86.6353 84.2778 86.7906 84.3485 87.2213C84.4189 87.6501 84.4776 88.2769 84.4776 89.14H94.4776ZM90.2976 79.26L95.259 70.5776C90.1773 67.6737 83.3915 66.98 76.8076 66.98V76.98V86.98C79.6134 86.98 81.7314 87.1512 83.2636 87.4102C84.8642 87.6807 85.3965 87.9769 85.3362 87.9424L90.2976 79.26ZM243.706 96.17H253.706V86.17H243.706V96.17ZM243.706 130.18V140.18H253.706V130.18H243.706ZM204.946 130.18V120.18H194.946V130.18H204.946ZM204.946 183V193H214.946V183H204.946ZM159.346 183H149.346V193H159.346V183ZM159.346 40.5V30.5H149.346V40.5H159.346ZM252.826 40.5L262.706 42.0438L264.51 30.5H252.826V40.5ZM247.126 76.98V86.98H255.685L257.006 78.5238L247.126 76.98ZM204.946 76.98V66.98H194.946V76.98H204.946ZM204.946 96.17H194.946V106.17H204.946V96.17ZM243.706 96.17H233.706V130.18H243.706H253.706V96.17H243.706ZM243.706 130.18V120.18H204.946V130.18V140.18H243.706V130.18ZM204.946 130.18H194.946V183H204.946H214.946V130.18H204.946ZM204.946 183V173H159.346V183V193H204.946V183ZM159.346 183H169.346V40.5H159.346H149.346V183H159.346ZM159.346 40.5V50.5H252.826V40.5V30.5H159.346V40.5ZM252.826 40.5L242.946 38.9562L237.246 75.4362L247.126 76.98L257.006 78.5238L262.706 42.0438L252.826 40.5ZM247.126 76.98V66.98H204.946V76.98V86.98H247.126V76.98ZM204.946 76.98H194.946V96.17H204.946H214.946V76.98H204.946ZM204.946 96.17V106.17H243.706V96.17V86.17H204.946V96.17Z" fill="#191919" mask="url(#path-1-outside-1_517_2)"/>
</g>
<defs>
<clipPath id="clip0_517_2">
<rect width="256" height="256" fill="white"/>
</clipPath>
</defs>
</svg>
